<svg xmlns="http://www.w3.org/2000/svg" xmlns:xlink="http://www.w3.org/1999/xlink" viewBox="0 0 216.31 216.31"><defs><style>.cls-1{fill:none;}.cls-2{fill:url(#linear-gradient);}.cls-3{fill:#fff;}.cls-4{fill:url(#linear-gradient-2);}.cls-5{fill:url(#linear-gradient-3);}</style><linearGradient id="linear-gradient" y1="108.15" x2="108.15" y2="108.15" gradientUnits="userSpaceOnUse"><stop offset="0" stop-color="#070208"/><stop offset="0.28" stop-color="#0b0e19"/><stop offset="0.54" stop-color="#0e1524"/><stop offset="0.68" stop-color="#111928"/><stop offset="0.82" stop-color="#1c2433"/><stop offset="0.95" stop-color="#2e3747"/><stop offset="1" stop-color="#353f4f"/></linearGradient><linearGradient id="linear-gradient-2" x1="111.49" y1="43.72" x2="182.71" y2="43.72" gradientUnits="userSpaceOnUse"><stop offset="0" stop-color="#353f4f"/><stop offset="0.05" stop-color="#2e3747"/><stop offset="0.18" stop-color="#1c2433"/><stop offset="0.32" stop-color="#111928"/><stop offset="0.46" stop-color="#0e1524"/><stop offset="0.72" stop-color="#0b0e19"/><stop offset="1" stop-color="#070208"/></linearGradient><linearGradient id="linear-gradient-3" x1="117.2" y1="134.02" x2="173.39" y2="134.02" xlink:href="#linear-gradient-2"/></defs><title>logotipoAsset 6logotipo-circle</title><g id="Layer_2" data-name="Layer 2"><g id="Layer_1-2" data-name="Layer 1"><path class="cls-1" d="M108.15,108.15V216.31A108.16,108.16,0,1,0,108.15,0Z"/><path class="cls-2" d="M108.15,108.15V0a108.16,108.16,0,0,0,0,216.31Z"/><g id="gato"><g id="cola"><path class="cls-3" d="M45.55,73.08a41.7,41.7,0,0,1,12.07-3.92c.55-.07,1.1-.18,1.66-.23s1.13-.06,1.71-.09a26.64,26.64,0,0,1,3.55.1,15.4,15.4,0,0,1,1.85.29,12,12,0,0,1,1.88.46l1.92.65c.63.28,1.26.6,1.89.92a19.81,19.81,0,0,1,6.49,5.92,26.89,26.89,0,0,1,3.48,7.59A49.75,49.75,0,0,1,83.65,99c-.17,8.9-1.54,17-2.85,24.74S78,138.92,77.24,145.9s-.93,13.48.27,18.6a20.85,20.85,0,0,0,2.88,6.83,23.08,23.08,0,0,0,5.66,5.81A46.85,46.85,0,0,0,94.61,182c1.64.64,3.27,1.4,5,2,.87.3,1.74.64,2.62.93s1.8.54,2.71.83c1.79.65,3.68,1,5.54,1.62s3.8.95,5.73,1.51,3.89.94,5.86,1.44,4,.94,6,1.54c-1.93.79-3.89,1.46-5.86,2.13s-4,1.14-6,1.65-4.07.86-6.14,1.22c-1,.16-2.08.28-3.13.42l-1.57.2-1.59.13a70.39,70.39,0,0,1-13.05-.11A50.42,50.42,0,0,1,77.12,194,37.83,37.83,0,0,1,55.6,171.56a52.63,52.63,0,0,1-2.92-14.74,79.08,79.08,0,0,1,.47-13.7,156.45,156.45,0,0,1,5.25-24.48c2.18-7.66,4.62-15,6.35-21.81a52.15,52.15,0,0,0,1.63-9.41,21.23,21.23,0,0,0-.15-3.66,7.51,7.51,0,0,0-1.21-3A10,10,0,0,0,61.92,78a18.8,18.8,0,0,0-2.24-1.15c-.41-.17-.82-.34-1.23-.53s-.87-.3-1.3-.46A94.83,94.83,0,0,0,45.55,73.08Z"/></g><g id="cuerpo_y_punto" data-name="cuerpo y punto"><path class="cls-4" d="M168.42,35.23c-4.74-8.49-5.15-16.65-7.16-16.51-2.36.17-1,11.52-7.08,16.54a11.67,11.67,0,0,1-14.24,0c-6.13-5-4.79-16.34-7.16-16.5-2-.14-2.28,8-7.09,16.54-6.35,11.23-14.11,11.48-14.2,16.55-.12,7,14.71,14.73,28.52,16.45C161.16,71,182.85,60,182.71,51.71,182.62,46.8,174.9,46.82,168.42,35.23Z"/><path class="cls-3" d="M64.53,19.24a16.24,16.24,0,1,0,16.16,16.2A16.18,16.18,0,0,0,64.53,19.24Z"/><path class="cls-5" d="M148.39,68.81c-13.16-1.13-27.44,44.88-30.33,80.87-1.16,14.38-2.1,27.84,3.9,37.69,11.33,18.6,41.27,14.27,49.57-5.5,2.65-6.31,2.33-13.3-.07-32.32C168.36,125.08,161.38,69.93,148.39,68.81Z"/></g></g></g></g></svg>