<svg xmlns="http://www.w3.org/2000/svg" viewBox="0 0 975 327"><defs><style>.cls-1{fill:none;}.cls-2{fill:#fff;}</style></defs><title>logotipoAsset 9logotipo</title><g id="Layer_2" data-name="Layer 2"><g id="Layer_1-2" data-name="Layer 1"><rect class="cls-1" width="975" height="327" rx="12"/><rect x="16.25" y="24.77" width="844.03" height="282.32" rx="21.49"/><g id="texto"><path class="cls-2" d="M32.7,285.19V58.83h67.43q25.8,0,44.72,7.22t29.24,20.47Q184.41,99.76,184.41,118a63.76,63.76,0,0,1-6.88,28.9,81.7,81.7,0,0,1-18.75,24.42,92.41,92.41,0,0,1-27,16.86,82.79,82.79,0,0,1-31.65,6.19H48.18v-28.9h57.45a30.06,30.06,0,0,0,17.55-5.5,40.61,40.61,0,0,0,12.73-14.62,41.71,41.71,0,0,0,4.81-19.78q0-15.82-11.52-25.46T96.34,90.48H74.67V285.19Zm170,3.79q-14.46,0-25.29-4a56,56,0,0,1-19.78-12.56q-9-8.59-18.58-23L96.69,184.74l34.06-12,49.54,61.92a111.62,111.62,0,0,0,14.79,15.31,34.44,34.44,0,0,0,22.7,8.77q2.07,0,6-.34a25.74,25.74,0,0,0,7.4-1.72l9.29,24.43a107.07,107.07,0,0,1-20.13,6.19A96,96,0,0,1,202.65,289Z" transform="translate(0 -4.49)"/><path class="cls-2" d="M317.55,289.67q-20.64,0-36.81-8.43a60.73,60.73,0,0,1-25.29-24.6q-9.12-16.17-9.11-38.88,0-24.42,10.32-42.83a75.48,75.48,0,0,1,27.86-28.72q17.55-10.32,39.56-10.32,27.87,0,42,16.85t14.1,45.42c0,2.52-.06,5.45-.17,8.77a83.49,83.49,0,0,1-.86,9.46H345.41V197.47q0-16.17-5.5-25.12t-19.61-8.94a32.41,32.41,0,0,0-19.61,6,37.3,37.3,0,0,0-12.56,16.86q-4.31,10.83-4.3,25.28,0,22.37,11.7,34.92t30.62,12.56a56.83,56.83,0,0,0,20.81-4,68,68,0,0,0,19.44-11.87l12.73,20.64a88,88,0,0,1-20.64,15.66,81.64,81.64,0,0,1-21,7.91A94.2,94.2,0,0,1,317.55,289.67ZM265.6,216.39l4.47-23.74H374.66v23.74Z" transform="translate(0 -4.49)"/><path class="cls-2" d="M414.91,285.19V143.8l32.68-7.22,7.22,29.58v119Zm100.79,0V205q0-17.55-7.56-27.7t-21.68-10.15A49.8,49.8,0,0,0,470.64,170a52.84,52.84,0,0,0-15.14,7.91,43.08,43.08,0,0,0-11.35,12.73L431.76,182a118.75,118.75,0,0,1,21-24.26A82.86,82.86,0,0,1,477,142.94a74.34,74.34,0,0,1,27-5,55.09,55.09,0,0,1,26.14,6.19,46.11,46.11,0,0,1,18.58,18.07q6.88,11.86,6.88,28.38v94.6Z" transform="translate(0 -4.49)"/><path class="cls-2" d="M671.89,210.2q-5.16,0-15.14-.69a140,140,0,0,1-19.61-2.75v-32q12,1.38,20.3,1.89t17.89.52q17.53,0,28.72-4.3t16.52-13.42q5.32-9.1,5.33-22.87,0-22-13.42-33.72T676.36,91.17H652.62v194H610V58.83h73.62q25.8,0,45.24,8.25t30.45,23.4q11,15.13,11,36.12a72.21,72.21,0,0,1-7.23,31.82,85.28,85.28,0,0,1-20.29,26.66,96.54,96.54,0,0,1-31.14,18.41A113.33,113.33,0,0,1,671.89,210.2Z" transform="translate(0 -4.49)"/></g><g id="gato"><g id="cola"><path class="cls-2" d="M785.07,128.22a53.15,53.15,0,0,1,15.48-5c.71-.1,1.41-.24,2.13-.3s1.45-.09,2.19-.12a33.34,33.34,0,0,1,4.55.13,20.16,20.16,0,0,1,2.38.36,16.66,16.66,0,0,1,2.42.58c.81.26,1.63.54,2.45.84s1.62.77,2.43,1.19a25.06,25.06,0,0,1,8.33,7.6,35,35,0,0,1,4.46,9.74,63.83,63.83,0,0,1,2.05,18.27c-.22,11.42-2,21.77-3.66,31.74s-3.53,19.44-4.57,28.4-1.19,17.29.35,23.85a26.69,26.69,0,0,0,3.69,8.76A29.61,29.61,0,0,0,837,261.7a60.38,60.38,0,0,0,11,6.19c1,.45,2.11.85,3.17,1.3.54.21,1.07.45,1.61.65l1.67.58,3.36,1.19,3.47,1.08,1.74.56,1.79.49c1.18.34,2.38.66,3.58,1,2.42.68,4.87,1.22,7.35,1.93s5,1.21,7.52,1.85,5.09,1.21,7.68,2c-2.47,1-5,1.87-7.52,2.73s-5.11,1.46-7.7,2.11-5.22,1.1-7.88,1.57c-1.33.21-2.66.37-4,.56l-2,.25-2,.16-4.1.28c-1.38.05-2.77,0-4.16,0h-2.1c-.7,0-1.41-.09-2.12-.13-1.41-.1-2.83-.17-4.26-.33a64.65,64.65,0,0,1-17.47-4.42,48.55,48.55,0,0,1-27.6-28.8,67,67,0,0,1-3.75-18.91c-.05-.76-.09-1.54-.11-2.29l0-2.25c0-1.51,0-3,.07-4.44s.16-2.9.27-4.34.25-2.84.41-4.25a199.55,199.55,0,0,1,6.73-31.4c2.79-9.83,5.92-19.22,8.15-28a67.47,67.47,0,0,0,2.09-12.07,25.81,25.81,0,0,0-.21-4.69,9.92,9.92,0,0,0-1.54-3.81,13.26,13.26,0,0,0-4-3.56,21,21,0,0,0-2.88-1.48c-.51-.22-1-.44-1.57-.68s-1.11-.39-1.67-.59A118.71,118.71,0,0,0,785.07,128.22Z" transform="translate(0 -4.49)"/></g><g id="cuerpo_y_punto" data-name="cuerpo y punto"><path d="M942.68,79.66c-6.08-10.88-6.62-21.35-9.18-21.17-3,.22-1.25,14.78-9.09,21.22a15,15,0,0,1-18.27,0c-7.87-6.4-6.15-21-9.18-21.17-2.58-.17-2.93,10.31-9.09,21.21-8.16,14.42-18.11,14.74-18.22,21.23-.15,9,18.86,18.9,36.59,21.1,27.12,3.39,54.94-10.7,54.76-21.31C960.89,94.5,951,94.53,942.68,79.66Z" transform="translate(0 -4.49)"/><path class="cls-2" d="M809.41,59.16a20.82,20.82,0,1,0,20.73,20.77A20.75,20.75,0,0,0,809.41,59.16Z" transform="translate(0 -4.49)"/><path d="M917,122.75c-16.88-1.45-35.19,57.56-38.91,103.72-1.48,18.45-2.69,35.72,5,48.35,14.53,23.86,52.94,18.31,63.58-7.05,3.4-8.1,3-17.07-.09-41.46C942.59,194.92,933.64,124.17,917,122.75Z" transform="translate(0 -4.49)"/></g></g></g></g></svg>