<svg xmlns="http://www.w3.org/2000/svg" viewBox="0 0 824 824"><defs><style>.cls-1{fill:#fff;}</style></defs><title>logotipoAsset 10logotipo-circle</title><g id="Layer_2" data-name="Layer 2"><g id="Layer_1-2" data-name="Layer 1"><path class="cls-1" d="M412,412V824c227.54,0,412-184.46,412-412S639.54,0,412,0Z"/><path d="M412,412V0C184.46,0,0,184.46,0,412S184.46,824,412,824Z"/><g id="gato"><g id="cola"><path class="cls-1" d="M173.53,278.41c1.77-.91,3.57-1.74,5.37-2.61s3.64-1.58,5.48-2.37c.92-.39,1.84-.79,2.77-1.16l2.8-1c1.88-.7,3.76-1.41,5.67-2a144.3,144.3,0,0,1,23.87-5.86c2.09-.26,4.19-.58,6.33-.78l3.23-.26,1.62-.12,1.64-.05c2.2-.06,4.42-.14,6.68,0,1.13,0,2.26.06,3.4.15l3.46.31c1.16.09,2.33.26,3.51.44s2.35.36,3.54.58c2.38.54,4.78,1,7.2,1.77a69.21,69.21,0,0,1,14.5,6A72.85,72.85,0,0,1,299.32,294a90.87,90.87,0,0,1,8,14.35,107.15,107.15,0,0,1,5.28,14.57l1,3.61c.32,1.2.57,2.37.86,3.57.59,2.4,1,4.71,1.44,7.08.77,4.64,1.43,9.29,1.85,13.77a237.53,237.53,0,0,1,.95,26.26,430.51,430.51,0,0,1-3.81,48.74c-1.06,7.81-2.1,15.51-3.34,23.08l-1.81,11.3-1.92,11.14-7.55,43.26c-2.37,14.07-4.5,27.82-6,41.1a322.38,322.38,0,0,0-2.39,38.08,147.84,147.84,0,0,0,3.44,32.77,80.68,80.68,0,0,0,10.88,26.05,73.78,73.78,0,0,0,9.23,11.45,101.16,101.16,0,0,0,12.33,10.7,134.56,134.56,0,0,0,15.22,9.69c5.49,3.08,11.33,5.93,17.46,8.65a363.94,363.94,0,0,0,39.41,14.3c13.85,4.25,28.23,8.11,43,11.81s29.79,7.22,45.16,11.4a298.46,298.46,0,0,1-45.2,14.43,322.59,322.59,0,0,1-47.34,7.57,258,258,0,0,1-49.72-.52c-17-2-34.47-5.73-51.91-13A155.37,155.37,0,0,1,268,725.57c-2.11-1.33-4.13-2.86-6.19-4.32s-4-3.11-6-4.69-3.9-3.35-5.84-5-3.76-3.57-5.57-5.44a141.62,141.62,0,0,1-19.22-24.77,152.46,152.46,0,0,1-7.48-13.66c-1.07-2.33-2.13-4.67-3.13-7s-1.94-4.72-2.77-7.08A179.92,179.92,0,0,1,204,625.11a214.18,214.18,0,0,1-3.4-27.77,300.14,300.14,0,0,1,1.84-52.17c3.93-33.31,11.72-64,20-93.26L225.62,441l3.22-10.75c2.09-7.13,4.32-14.14,6.37-21.09,4.22-13.86,8.2-27.41,11.48-40.35,1.57-6.47,3.09-12.8,4.1-18.83.59-3.05,1-5.94,1.36-8.83s.63-5.6.73-8.19c.06-.68,0-1.28.07-1.93s0-1.28,0-1.87v-1.84l-.06-1.76a63.87,63.87,0,0,0-.67-6.51,35.35,35.35,0,0,0-1.58-5.79c-.2-.45-.35-1-.57-1.41s-.45-.92-.68-1.4a30,30,0,0,0-1.71-2.76,26.9,26.9,0,0,0-2.17-2.78c-.87-.86-1.72-1.82-2.74-2.68s-2.11-1.73-3.22-2.62c-.58-.42-1.21-.8-1.81-1.23s-1.22-.85-1.89-1.23a94.53,94.53,0,0,0-18.16-8.2,203.79,203.79,0,0,0-21.32-5.88c-1.85-.47-3.72-.8-5.6-1.22s-3.78-.79-5.69-1.18C181.3,279.9,177.45,279.24,173.53,278.41Z"/></g><g id="cuerpo_y_punto" data-name="cuerpo y punto"><path d="M641.59,134.19c-18.05-32.32-19.65-63.42-27.27-62.88-9,.66-3.71,43.89-27,63-15,12.32-39.19,12.38-54.26.12-23.35-19-18.24-62.26-27.27-62.87-7.64-.51-8.67,30.62-27,63-24.21,42.81-53.78,43.76-54.1,63.06-.45,26.79,56,56.1,108.66,62.66C613.93,270.35,696.54,228.5,696,197,695.68,178.26,666.27,178.35,641.59,134.19Z"/><path class="cls-1" d="M245.81,73.3a61.63,61.63,0,0,0-61.28,62c.08,34.14,27.64,61.76,61.56,61.69s61.35-27.83,61.28-62S279.72,73.22,245.81,73.3Z"/><path d="M565.26,262.14c-50.11-4.31-104.51,171-115.53,308-4.41,54.79-8,106.07,14.86,143.59,43.16,70.85,157.23,54.37,188.83-21,10.1-24,8.89-50.67-.28-123.11C641.33,476.47,614.75,266.38,565.26,262.14Z"/></g></g></g></g></svg>