<?xml version="1.0" standalone="no"?>
<!DOCTYPE svg PUBLIC "-//W3C//DTD SVG 20010904//EN"
 "http://www.w3.org/TR/2001/REC-SVG-20010904/DTD/svg10.dtd">
<svg version="1.0" xmlns="http://www.w3.org/2000/svg"
 width="700.000000pt" height="700.000000pt" viewBox="0 0 700.000000 700.000000"
 preserveAspectRatio="xMidYMid meet">
<metadata>
Created by potrace 1.14, written by Peter Selinger 2001-2017
</metadata>
<g transform="translate(0.000000,700.000000) scale(0.100000,-0.100000)"
fill="#000000" stroke="none">
<path d="M3280 6993 c-210 -20 -270 -27 -370 -44 -566 -96 -1103 -333 -1570
-695 -148 -114 -480 -446 -594 -594 -411 -530 -654 -1132 -728 -1795 -17 -155
-17 -575 0 -730 75 -673 332 -1300 748 -1820 114 -143 339 -372 484 -494 597
-501 1319 -781 2108 -818 l142 -6 0 313 0 312 -32 -6 c-77 -14 -398 -18 -508
-7 -677 71 -1110 460 -1232 1106 -19 102 -22 154 -22 340 0 391 54 671 264
1375 50 168 104 357 120 420 65 256 74 413 30 505 -55 114 -222 194 -531 257
l-113 22 71 33 c270 124 577 137 773 32 121 -64 207 -156 276 -294 91 -184
125 -422 105 -738 -14 -212 -41 -412 -117 -847 -70 -406 -94 -588 -101 -780
-15 -405 83 -631 349 -804 160 -104 334 -177 646 -271 l22 -6 0 3020 0 3021
-92 -2 c-51 0 -109 -3 -128 -5z m-1027 -644 c81 -26 187 -99 237 -162 173
-217 157 -512 -37 -706 -105 -105 -215 -150 -363 -151 -149 0 -275 55 -380
167 -251 268 -152 708 189 843 112 44 239 47 354 9z"/>
<path d="M4271 6376 c-7 -8 -36 -88 -65 -179 -112 -344 -211 -496 -440 -679
-126 -100 -148 -126 -154 -188 -11 -118 117 -254 347 -370 206 -103 506 -179
721 -181 84 0 85 -1 48 -14 -90 -33 -169 -109 -263 -250 -284 -429 -558 -1419
-639 -2305 -65 -701 -36 -1000 123 -1275 46 -80 179 -212 266 -263 283 -166
655 -156 970 27 108 63 255 209 313 313 138 244 143 411 41 1218 -177 1395
-356 2157 -574 2432 -49 63 -76 84 -131 103 -34 11 -31 12 63 19 493 34 1013
310 1013 537 0 61 -27 96 -142 186 -237 185 -333 329 -448 668 -70 208 -75
217 -103 213 -23 -3 -26 -13 -77 -238 -42 -182 -120 -295 -237 -341 -86 -35
-217 -33 -294 3 -138 64 -204 177 -254 433 -26 131 -51 171 -84 131z"/>
</g>
</svg>
